Coordinates
version=1
nRows=21
nColumns=12
inDegrees=yes

Units are S.I. units (second, meters, Newtons, ...)
Angles are in degrees

endheader
time	SC_y	SC_z	SC_x	AC_y	AC_z	AC_x	GH_y	GH_z	GH_yy	EL_x	PS_y
       0.0              -45.23          3.493          74.06          40.76         -17.13         -6.685         -179.0         -16.06         -115.7          83.33          116.0
   0.03171              -45.23          3.495          74.05          40.76         -17.13         -6.682         -178.9         -16.06         -115.7          83.33          116.0
   0.06341              -45.23          3.497          74.05          40.77         -17.13         -6.678         -178.9         -16.05         -115.7          83.32          116.0
   0.09512              -45.23          3.499          74.04          40.77         -17.13         -6.675         -178.9         -16.05         -115.6          83.32          116.0
    0.1268              -45.23          3.502          74.04          40.77         -17.13         -6.671         -178.8         -16.05         -115.6          83.31          116.0
    0.1585              -45.23          3.504          74.03          40.77         -17.13         -6.667         -178.8         -16.04         -115.5          83.31          116.0
    0.1902              -45.23          3.506          74.03          40.78         -17.13         -6.663         -178.8         -16.04         -115.5           83.3          116.0
    0.2219              -45.23          3.509          74.02          40.78         -17.13         -6.658         -178.7         -16.04         -115.4          83.29          116.0
    0.2536              -45.23          3.512          74.01          40.78         -17.13         -6.654         -178.7         -16.03         -115.3          83.29          116.1
    0.2854              -45.23          3.515           74.0          40.79         -17.13         -6.648         -178.6         -16.03         -115.3          83.28          116.1
    0.3171              -45.23          3.519           74.0          40.79         -17.13         -6.643         -178.6         -16.02         -115.2          83.27          116.1
    0.3488              -45.23          3.522          73.99          40.79         -17.13         -6.637         -178.5         -16.02         -115.1          83.26          116.1
    0.3805              -45.23          3.526          73.98           40.8         -17.13          -6.63         -178.4         -16.01         -115.0          83.25          116.1
    0.4122              -45.23           3.53          73.97           40.8         -17.13         -6.623         -178.4         -16.01         -114.9          83.24          116.1
    0.4439              -45.23          3.535          73.95          40.81         -17.13         -6.616         -178.3          -16.0         -114.8          83.23          116.1
    0.4756              -45.22           3.54          73.94          40.81         -17.13         -6.608         -178.2         -15.99         -114.7          83.22          116.1
    0.5073              -45.22          3.545          73.93          40.82         -17.13         -6.599         -178.1         -15.98         -114.6          83.21          116.1
     0.539              -45.22          3.551          73.91          40.82         -17.13         -6.589         -178.0         -15.98         -114.5           83.2          116.1
    0.5707              -45.22          3.557           73.9          40.83         -17.14         -6.578         -177.9         -15.97         -114.3          83.18          116.1
    0.6024              -45.22          3.564          73.88          40.84         -17.14         -6.567         -177.8         -15.96         -114.2          83.17          116.2
    0.6341              -45.22          3.572          73.86          40.85         -17.14         -6.554         -177.7         -15.95         -114.0          83.15          116.2
